<svg id="Layer_1" fill="#b2becf" data-name="Layer 1" xmlns="http://www.w3.org/2000/svg" viewBox="0 0 315.41 342.71"><path d="M27.17,273.9V123.2H10.84c-9.3,0-10.78-1.5-10.78-10.93,0-11.87.09-23.75,0-35.62C0,72.47,1.69,70,5.49,68.28Q79.47,34.75,153.38,1A9.74,9.74,0,0,1,162,1Q236.1,34.74,310.25,68.4c3.65,1.66,5.19,4.22,5.15,8.21-.11,12.75,0,25.5,0,38.25,0,6-2.4,8.31-8.48,8.33s-12.2,0-18.56,0V273.72c2.28.29,4.5.46,6.67.87a24.43,24.43,0,0,1,20.26,23.23c.27,12.5.14,25,.08,37.5,0,4.49-2.38,6.87-6.86,7.3a35.91,35.91,0,0,1-3.74.08h-294a28,28,0,0,1-4.85-.25c-3.51-.6-5.72-2.73-5.74-6.34-.07-13.25-.36-26.51.17-39.74.47-11.8,11-21.35,23.42-22.29C24.73,274,25.73,274,27.17,273.9ZM13.71,109.27h288c0-8.92-.1-17.54.06-26.16.05-2.62-.76-3.9-3.21-5Q229.5,46.86,160.47,15.5a8,8,0,0,0-5.84.19C130.38,26.55,106.2,37.59,82,48.59Q49.29,63.46,16.59,78.39c-1.19.56-2.72,2.1-2.75,3.22C13.62,90.72,13.71,99.84,13.71,109.27Zm68.83,14.08V273.69h27.17v-4.42c0-23.62-.11-47.24,0-70.86.11-15.9,6.66-28.94,19.45-38.27,15.58-11.36,32.71-12.92,49.88-4.35s26.24,23.21,26.54,42.48c.37,23.86.09,47.74.09,71.61v3.93h27.23V123.35ZM191.93,273.83c0-26.07.73-51.68-.23-77.24-.81-21.55-20.51-35.76-41.31-31.42-15.92,3.32-26.93,17.27-27,34.55-.1,23.61,0,47.21,0,70.82,0,1.08.14,2.16.22,3.29ZM41.48,123.37V273.79H68.32V123.37Zm232.6.12H247.19V273.77h26.89Zm28,177.87c-.55-2.58-.65-5-1.59-7.05-2.48-5.37-7.24-6.64-12.75-6.64q-130.06.06-260.13,0a25.66,25.66,0,0,0-4.47.33c-6.33,1.13-10.06,6.6-9,13.32Zm-.5,14.07H14v13.15H301.57Z"/><path d="M157.35,95.69A27.35,27.35,0,0,1,130.29,68c.23-15.1,12.85-27.4,27.78-27.09,15.16.31,27.39,12.87,27.06,27.82A27.33,27.33,0,0,1,157.35,95.69ZM144.09,68.13a13.62,13.62,0,1,0,13.63-13.41A13.51,13.51,0,0,0,144.09,68.13Z"/></svg>