<svg id="Layer_1" fill="#b2becf" data-name="Layer 1" xmlns="http://www.w3.org/2000/svg" viewBox="0 0 288.16 342.96"><path d="M102.66,246.93c.23-2.55.28-4.67.63-6.74,2.1-12.35,11.77-20.62,24.27-20.76,5.36-.05,10.72,0,16.38,0,.07-1.42.18-2.62.18-3.83q0-72.57,0-145.14c0-2.51-.53-3.9-3.1-5-5.9-2.52-9.68-7.3-12.06-13.59L74.76,65.52c.76,1.48,1.3,2.66,1.94,3.79,11.08,19.41,21.85,39,33.44,58.12,4.3,7.11,4.72,13.95,3.07,21.47a50.35,50.35,0,0,1-99.13-5.28,21.62,21.62,0,0,1,3-14.24c11.76-20.17,23.27-40.5,34.87-60.77.62-1.08,1.22-2.16,2-3.62-7.73-2.58-15.28-5-22.79-7.67a12.47,12.47,0,0,1-4.79-2.71c-2.23-2.31-2.33-5.25-.64-8a6.27,6.27,0,0,1,7.78-2.88c8.9,2.9,17.72,6.06,26.68,8.75a16.8,16.8,0,0,0,8.3.3c19.17-4.59,38.29-9.44,57.41-14.28a5.54,5.54,0,0,0,3.25-2c5.51-9.37,5.47-9.4,14.95-14.09,0-4.77,0-9.64,0-14.51s2.82-8,7-8,6.61,3,6.67,7.85,0,9.74,0,14.7c7.05,2.61,12.06,7.14,14.86,14.08.35.88,1.85,1.54,2.94,1.82q29.58,7.5,59.22,14.8a8.16,8.16,0,0,0,4.93-.69c5.32-2.46,10.5-5.23,15.77-7.82,4.52-2.21,8.42-1.2,10.29,2.55s.37,7.38-4.19,9.73-9.11,4.59-13.94,7c.66,1.26,1.19,2.34,1.79,3.38C261,87.6,272.26,107.9,284.1,127.88a26.36,26.36,0,0,1,3.41,18.88c-4.05,24.44-27.34,43.11-52.08,41.44-26.58-1.78-47.32-22.65-47.68-48.24a17.53,17.53,0,0,1,2.18-8.46C201.6,110.7,213.5,90,225.32,69.31c.62-1.08,1.22-2.17,2.07-3.69L173,51.93a25.15,25.15,0,0,1-13.65,14.46c-.9.39-1.53,2.36-1.54,3.6-.1,15.5-.07,31-.07,46.51V219.44c5.92,0,11.62-.18,17.3,0,10,.39,17.5,5.09,21.56,14.24,1.72,3.88,2.1,8.36,3.23,13.21h78c1.13,0,2.25,0,3.38,0,4,.25,6.74,2.86,6.88,6.51s-2.64,6.78-6.74,7.09c-2.1.17-4.22,0-6.61,0v68.5c1.89,0,3.84-.07,5.78,0,4.54.21,7.44,2.82,7.57,6.71s-2.83,6.82-7.54,7.12c-.88.05-1.75,0-2.63,0q-113.48,0-226.95,0c-22,0-39.39-10.85-47.21-29.42A47.89,47.89,0,0,1,47.56,247c16.88-.2,33.76,0,50.65,0Zm157.85,68.51H51.11c-6.69,0-9.9-2.29-9.81-7s3.09-6.63,9.73-6.64H260.47V287.94H51.86a42.19,42.19,0,0,1-4.5-.1,6.71,6.71,0,0,1-1.16-13.15,20.82,20.82,0,0,1,5.19-.42q102.23,0,204.44,0h4.66V260.62H50.68c-1.62,0-3.25,0-4.87.06C27,261.5,11.78,279.37,14,298s16.22,31.06,35.52,31.07q103.55,0,207.07,0h4ZM269.35,130,237.8,74.94,206.42,130ZM32.66,130H95.54L64,74.94C53.45,93.48,43.17,111.52,32.66,130Zm-3.84,14.17C29.35,159,46.4,173.43,63.4,173.66c17.87.24,35-13.77,36-29.54Zm173.85,0c.29,15.64,18.85,30.29,37.14,29.52,16.47-.69,34-16.22,33.13-29.52ZM185,246.72c.86-8.55-3.46-13.53-11.69-13.64-7.61-.09-15.23,0-22.85,0s-15-.13-22.47.05c-7.91.19-12.47,5.95-10.83,13.61ZM141.72,44.81A9.56,9.56,0,0,0,151,54.24a9.7,9.7,0,0,0,9.46-9.3,9.48,9.48,0,0,0-9.6-9.45A9,9,0,0,0,141.72,44.81Z"/></svg>