<svg id="Layer_1" fill="#b2becf" data-name="Layer 1" xmlns="http://www.w3.org/2000/svg" viewBox="0 0 313.47 329.05"><path d="M247.51,110.55c.72-1.09,1.48-2.16,2.15-3.27q8.42-13.95,16.83-27.91c3.31-5.46,6.54-6.25,12.11-2.92q15,8.92,29.87,17.92c5.59,3.37,6.35,6.5,3,12.08q-31.2,51.84-62.33,103.72a15.75,15.75,0,0,0-2.16,7.64c-.15,27.75-.08,55.5-.1,83.25,0,17.5-10.49,28-28,28H28c-17.35,0-28-10.68-28-28.07Q.06,189.6,0,78.24a12.49,12.49,0,0,1,4-9.61q32.6-32.35,65-65a11.63,11.63,0,0,1,9-3.67Q148.74.12,219.6.06c16.46,0,27.22,10.77,27.24,27.22q.06,39.55,0,79.12v3.95ZM82.43,13.74V72.35c0,7.84-2,9.83-9.66,9.84h-59v83q0,68.06,0,136.09c0,9.1,4.68,14.11,13.24,14.11q96.54,0,193.07,0c8.34,0,13.18-4.91,13.19-13.36q0-30.74,0-61.48c0-.89-.18-1.77-.36-3.47-6.83,11.32-13.12,22-19.66,32.42a12.77,12.77,0,0,1-5.33,4.88c-9,3.87-18.26,7.4-27.46,10.93-6.11,2.35-10.07-.13-10.8-6.61-1-8.93-1.93-17.88-3-26.8a15.8,15.8,0,0,1,2.3-10.65q31.36-51.72,62.41-103.63a13.52,13.52,0,0,0,1.85-6.61q.18-51.36.08-102.72c0-10-4.43-14.5-14.3-14.5H82.43ZM277,137.16l-21.31-12.82a21.45,21.45,0,0,0-1.33,1.71q-36.48,60.62-72.94,121.24a5.07,5.07,0,0,0-1,2.73c.62,6.42,1.39,12.83,2.16,19.62,5.4-2.12,10.57-3.92,15.52-6.21a12.86,12.86,0,0,0,5.45-4.56q26-42.69,51.65-85.56C262.38,161.35,269.59,149.39,277,137.16ZM68.35,68.43V25.58L25.5,68.43ZM275.69,90.59l-13.15,21.84,21.52,13c4.46-7.42,8.73-14.55,13.14-21.88Z"/><path d="M108.86,257.27c-4.43,4.51-8.92,9-13.28,13.53-2.52,2.65-5.3,4.35-9,2.88s-4.38-4.73-4.22-8.36c.12-2.57,0-5.15,0-8.95-4.7,4.74-8.59,8.69-12.5,12.62a46.15,46.15,0,0,1-3.78,3.63,6.79,6.79,0,0,1-9.18-.43,6.62,6.62,0,0,1-.36-9.16,49.77,49.77,0,0,1,3.64-3.77c7.68-7.69,15.4-15.33,23-23.07,2.51-2.55,5.28-3.89,8.72-2.41s4.22,4.29,4.09,7.7c-.11,2.81,0,5.63,0,9.6,5.56-5.62,10.3-10.5,15.14-15.29,3.16-3.13,7.14-3.75,9.61-1a11.48,11.48,0,0,1,2.64,6.61c.35,6.21.12,12.45.12,19.16h16.61a35.89,35.89,0,0,1,4.87.11,6.7,6.7,0,0,1,5.79,7.12,6.36,6.36,0,0,1-6.19,6.3q-14.24.23-28.46,0c-3.83-.06-6.17-2.76-6.39-6.94-.17-3.1,0-6.22,0-9.33Z"/><path d="M123.33,123.36H64.49a25.89,25.89,0,0,1-3.74-.11,6.77,6.77,0,0,1,.16-13.42,29.15,29.15,0,0,1,3.74-.08H182.33c1,0,2,0,3,0,3.9.25,6.65,3,6.7,6.67.06,3.83-2.76,6.67-6.86,6.9-1,0-2,0-3,0Z"/><path d="M123.79,150.92q30.17,0,60.34,0c4.37,0,7.14,2,7.81,5.47a6.86,6.86,0,0,1-5.58,8,18.79,18.79,0,0,1-3.36.14H64.2c-.63,0-1.25,0-1.87,0-4.37-.17-7.39-3-7.4-6.84s3-6.75,7.4-6.76c19.61-.05,39.23,0,58.84,0Z"/><path d="M151.16,68.55c10.87,0,21.74,0,32.62,0,5.1,0,8.15,2.52,8.25,6.68.1,4.32-3,6.93-8.32,6.94q-32.81,0-65.61,0c-5.14,0-8.19-2.49-8.29-6.63s3.13-7,8.35-7Q134.66,68.53,151.16,68.55Z"/></svg>