<svg id="Layer_1" data-name="Layer 1" xmlns="http://www.w3.org/2000/svg" viewBox="0 0 240 146"><defs><style>.cls-1{fill:#9b825e;}.cls-2{fill:#fff;}.cls-3{fill:#cfc2b2;}</style></defs><rect class="cls-1" width="240" height="146"/><path class="cls-2" d="M51.22,88.37V101h6.14v2.75H48.07V88.37Z"/><path class="cls-2" d="M71.77,98.66l.06.71-2,4.4H66.27l7.8-16.31,7.81,16.31H78.32l-2-4.27,0-.79-2.31-5.35Zm-1.35-.88h7.4l.37,2.49H70.05Z"/><path class="cls-2" d="M106.88,88.37h3.69l-6.49,16.25L99.24,94.5l-4.86,10.12L87.91,88.37h3.7L95,97.94,99.24,87.6l4.34,10.34Z"/><path class="cls-2" d="M123.6,88.37v15.4h-3.15V88.37Zm-1.24,0h3.26a7.08,7.08,0,0,1,3.1.61,4.52,4.52,0,0,1,2,1.72,5.18,5.18,0,0,1,0,5.13,4.54,4.54,0,0,1-2,1.73,7.08,7.08,0,0,1-3.1.62h-3.26V95.67h3.06a3.33,3.33,0,0,0,1.44-.28,2,2,0,0,0,.94-.79,2.49,2.49,0,0,0,0-2.48,2.12,2.12,0,0,0-.94-.8,3.49,3.49,0,0,0-1.44-.27h-3.06Zm4.91,8.22,5,7.18h-3.72L124,96.59Z"/><path class="cls-2" d="M141.92,92.84a7.66,7.66,0,0,1,1.72-2.54,7.58,7.58,0,0,1,2.58-1.66,9.28,9.28,0,0,1,6.46,0,7.92,7.92,0,0,1,2.59,1.66A7.49,7.49,0,0,1,157,92.84a8.45,8.45,0,0,1,.61,3.23,8.54,8.54,0,0,1-.61,3.22,7.81,7.81,0,0,1-1.69,2.58,7.71,7.71,0,0,1-2.58,1.71,9.18,9.18,0,0,1-6.53,0,7.85,7.85,0,0,1-2.59-1.71,7.65,7.65,0,0,1-1.69-2.58,8.54,8.54,0,0,1-.59-3.22A8.26,8.26,0,0,1,141.92,92.84Zm3.32,5.84a4.63,4.63,0,0,0,1.7,1.81,5.08,5.08,0,0,0,5,0,4.61,4.61,0,0,0,1.69-1.81,5.52,5.52,0,0,0,.6-2.61,5.65,5.65,0,0,0-.59-2.62A4.49,4.49,0,0,0,152,91.64a4.77,4.77,0,0,0-2.53-.66,4.7,4.7,0,0,0-2.51.66,4.63,4.63,0,0,0-1.7,1.81,5.91,5.91,0,0,0,0,5.23Z"/><path class="cls-2" d="M170.52,103.77h-3.28l2.29-16.17L176,97.54l6.44-9.94,2.29,16.17h-3.27l-1-8.65L176,102.34l-4.47-7.22Z"/><path class="cls-2" d="M71.64,115.94V125H70.53v-9.1Zm-.49,0h4.06v1H71.15Zm0,3.64h3.93v1H71.15Z"/><path class="cls-2" d="M81.51,115.94V125H80.4v-9.1Z"/><path class="cls-2" d="M88.06,115.94V125H87v-9.1Zm-.49,0h1.85a3.63,3.63,0,0,1,1.58.33,2.62,2.62,0,0,1,1.11.94,2.79,2.79,0,0,1,0,2.91,2.64,2.64,0,0,1-1.11.95,3.63,3.63,0,0,1-1.58.33H87.57v-1h1.85a2.44,2.44,0,0,0,1-.21,1.56,1.56,0,0,0,.7-.59,1.93,1.93,0,0,0,0-1.9,1.64,1.64,0,0,0-.7-.6,2.44,2.44,0,0,0-1-.21H87.57Zm2.24,4.61L93.06,125H91.7l-3.12-4.49Z"/><path class="cls-2" d="M98.19,125H97.08l1.11-9.56,3.63,6.59,3.65-6.59,1.1,9.56h-1.1l-.68-6.15-3,5.3-3-5.3Z"/><path class="cls-2" d="M120.08,119.47a3.94,3.94,0,0,1-.58-.75,1.71,1.71,0,0,1-.25-.91,2,2,0,0,1,.28-1.07,1.92,1.92,0,0,1,.79-.7,2.6,2.6,0,0,1,1.15-.25,2.32,2.32,0,0,1,1.18.29,2,2,0,0,1,.74.75,2,2,0,0,1,.26,1,1.58,1.58,0,0,1-.13.63,2.37,2.37,0,0,1-.37.62,4.8,4.8,0,0,1-.6.59,9.47,9.47,0,0,1-.81.55c-.23.14-.49.28-.77.42a6.28,6.28,0,0,0-.78.48,2.39,2.39,0,0,0-.61.62,1.51,1.51,0,0,0-.23.84,1.45,1.45,0,0,0,.25.86,1.7,1.7,0,0,0,.68.56,2.31,2.31,0,0,0,1,.2,2.86,2.86,0,0,0,1.21-.28,4.94,4.94,0,0,0,1.11-.73,10.27,10.27,0,0,0,1-1c.34-.39.66-.8,1-1.22l.81.51c-.35.45-.71.9-1.07,1.34a8.32,8.32,0,0,1-1.17,1.2,5.41,5.41,0,0,1-1.35.86,3.85,3.85,0,0,1-1.6.33,3.26,3.26,0,0,1-1.41-.31,2.67,2.67,0,0,1-1.09-.87,2.18,2.18,0,0,1-.43-1.33,2.23,2.23,0,0,1,.21-1,2.51,2.51,0,0,1,.52-.76,4.12,4.12,0,0,1,.69-.56,7.75,7.75,0,0,1,.74-.4l.63-.32a4.81,4.81,0,0,0,1.15-.88,1.37,1.37,0,0,0,.42-.9,1.22,1.22,0,0,0-.14-.59,1.09,1.09,0,0,0-.38-.39,1.28,1.28,0,0,0-.61-.14,1.11,1.11,0,0,0-.83.3,1.06,1.06,0,0,0-.3.79,1.22,1.22,0,0,0,.35.84l.74.86,4.81,5.53H125l-4.37-5A6.53,6.53,0,0,0,120.08,119.47Z"/><path class="cls-2" d="M138,118.64a4.42,4.42,0,0,1,1-1.49,4.26,4.26,0,0,1,1.47-1,4.86,4.86,0,0,1,3.67,0,4.42,4.42,0,0,1,2.43,2.47,5.18,5.18,0,0,1,0,3.69,4.32,4.32,0,0,1-1,1.49,4.75,4.75,0,0,1-5.13,1,4.43,4.43,0,0,1-1.47-1,4.32,4.32,0,0,1-1-1.49,5,5,0,0,1,0-3.69Zm1.27,3.68a3.34,3.34,0,0,0,1.23,1.27,3.3,3.3,0,0,0,1.77.47,3.25,3.25,0,0,0,1.77-.47,3.34,3.34,0,0,0,1.23-1.27,4,4,0,0,0,0-3.67,3.41,3.41,0,0,0-1.23-1.27,3.34,3.34,0,0,0-1.77-.47,3.36,3.36,0,0,0-3,1.74,4,4,0,0,0,0,3.67Z"/><path class="cls-2" d="M152.91,115.94V125h-1.1v-9.1Zm-.49,0h4.07v1h-4.07Zm0,3.64h3.94v1h-3.94Z"/><path class="cls-2" d="M162.78,115.94V125h-1.1v-9.1Zm-.49,0h4.07v1h-4.07Zm0,3.64h3.94v1h-3.94Z"/><path class="cls-3" d="M141,65.06c.6-.6,1.16-1.22,1.71-1.86V29.62H141Z"/><path class="cls-3" d="M137.61,68c.58-.43,1.15-.88,1.69-1.35v-37h-1.69Z"/><path class="cls-3" d="M144.41,61a31.2,31.2,0,0,0,1.69-2.75V29.62h-1.69Z"/><path class="cls-3" d="M127.41,72.88c.57-.15,1.14-.32,1.7-.5V29.62h-1.7Z"/><path class="cls-3" d="M134.2,70.18c.58-.32,1.15-.66,1.71-1V29.62H134.2Z"/><path class="cls-3" d="M130.81,71.77c.57-.22,1.14-.47,1.69-.73V29.62h-1.69Z"/><path class="cls-3" d="M91.26,16.41h-.94V44.14a29.67,29.67,0,0,0,35.3,29.14V71.37A27.86,27.86,0,0,1,92.2,44.14V18.29h57.48V16.41Z"/><path class="cls-3" d="M102.85,21.82a13.64,13.64,0,0,0-5.24,5.49,16.43,16.43,0,0,0-1.85,7.81A15.09,15.09,0,0,0,96.92,41a14.17,14.17,0,0,0,7.77,7.83,14.49,14.49,0,0,0,18.47-6.39A15.69,15.69,0,0,0,125,34.91a14.81,14.81,0,0,0-1-5.29h-1.73a12.94,12.94,0,0,1,1.11,5.24,14.35,14.35,0,0,1-.88,5A14,14,0,0,1,120,44.16a11.52,11.52,0,0,1-4.1,3,13.57,13.57,0,0,1-5.52,1.11A12.7,12.7,0,0,1,99.2,41.81a13.2,13.2,0,0,1-1.74-6.69,14.85,14.85,0,0,1,1.61-6.94,11.94,11.94,0,0,1,4.62-4.88,13.2,13.2,0,0,1,6.91-1.78h39.08V19.81H110.6A15,15,0,0,0,102.85,21.82Z"/><path class="cls-3" d="M147.8,54.5a29.25,29.25,0,0,0,1.71-7.15V29.62H147.8Z"/><path class="cls-3" d="M104.71,29a8.76,8.76,0,0,0-2.14,6.15,7.82,7.82,0,0,0,2.27,5.74,7.46,7.46,0,0,0,5.53,2.29,9.24,9.24,0,0,0,3.72-.71,6.28,6.28,0,0,0,2.55-2A8.45,8.45,0,0,0,118,37.76a10.87,10.87,0,0,0,.46-3.2,10.36,10.36,0,0,0-1.2-4.94h-1.7a9.4,9.4,0,0,1,1.32,4.91,10.51,10.51,0,0,1-.21,2.09,7,7,0,0,1-.7,1.88,5.73,5.73,0,0,1-1.22,1.55,5.59,5.59,0,0,1-1.87,1,7.75,7.75,0,0,1-2.54.38,5.77,5.77,0,0,1-4.31-1.87,6.15,6.15,0,0,1-1.79-4.47,7.12,7.12,0,0,1,1.66-4.93,5.93,5.93,0,0,1,4.67-1.87h39.08v-1.7H110.6A7.57,7.57,0,0,0,104.71,29Z"/><path class="cls-3" d="M104.55,24.77a10.43,10.43,0,0,0-4,4.25,13.2,13.2,0,0,0-1.38,6.1,11.11,11.11,0,0,0,3.27,8.14,10.78,10.78,0,0,0,7.93,3.3,12.27,12.27,0,0,0,4.94-1,9.81,9.81,0,0,0,3.6-2.62,11.61,11.61,0,0,0,2.1-3.76,13.49,13.49,0,0,0-.34-9.59h-1.8a11,11,0,0,1,1.26,5.12,11.86,11.86,0,0,1-.6,3.78,10.7,10.7,0,0,1-1.76,3.21A8,8,0,0,1,114.7,44a10.86,10.86,0,0,1-4.33.83,9.09,9.09,0,0,1-6.73-2.79,9.42,9.42,0,0,1-2.77-6.94,10.42,10.42,0,0,1,2.64-7.35,9.19,9.19,0,0,1,7.1-2.86h39.07v-1.7H110.6A11.62,11.62,0,0,0,104.55,24.77Z"/></svg>